<svg width="29" height="29" viewBox="0 0 29 29" fill="none" xmlns="http://www.w3.org/2000/svg">
<path d="M29.0002 14.5001C29.0002 22.5083 22.5083 29.0002 14.5001 29.0002C6.49193 29.0002 0 22.5083 0 14.5001C0 6.49193 6.49193 0 14.5001 0C22.5083 0 29.0002 6.49193 29.0002 14.5001ZM3.62503 14.5001C3.62503 20.5063 8.49397 25.3752 14.5001 25.3752C20.5063 25.3752 25.3752 20.5063 25.3752 14.5001C25.3752 8.49397 20.5063 3.62503 14.5001 3.62503C8.49397 3.62503 3.62503 8.49397 3.62503 14.5001Z" fill="white" fill-opacity="0.12"/>
<path d="M29.0002 14.5001C29.0002 11.0179 27.7471 7.65197 25.4698 5.01758C23.1926 2.38318 20.0434 0.656283 16.5978 0.15253L16.0734 3.73943C18.6576 4.11724 21.0195 5.41242 22.7274 7.38821C24.4353 9.36401 25.3752 11.8885 25.3752 14.5001H29.0002Z" fill="#EFFF35"/>
</svg>
