<svg width="27" height="27" viewBox="0 0 27 27" fill="none" xmlns="http://www.w3.org/2000/svg">
<path d="M23.625 13.5C23.625 7.91016 19.0898 3.375 13.5 3.375C7.91016 3.375 3.375 7.91016 3.375 13.5C3.375 19.0898 7.91016 23.625 13.5 23.625C19.0898 23.625 23.625 19.0898 23.625 13.5Z" stroke="#EE0000" stroke-width="1.6875" stroke-miterlimit="10"/>
<path d="M13.1971 8.75648L13.4998 15.1874L13.802 8.75648C13.8038 8.71537 13.7973 8.67431 13.7827 8.63581C13.7682 8.59731 13.746 8.56218 13.7174 8.53257C13.6888 8.50295 13.6545 8.47948 13.6165 8.46357C13.5786 8.44767 13.5378 8.43968 13.4966 8.44008V8.44008C13.456 8.44046 13.4158 8.44903 13.3785 8.46528C13.3412 8.48154 13.3076 8.50513 13.2797 8.53466C13.2517 8.5642 13.23 8.59906 13.2158 8.63717C13.2016 8.67528 13.1952 8.71586 13.1971 8.75648V8.75648Z" stroke="#EE0000" stroke-width="1.6875" stroke-linecap="round" stroke-linejoin="round"/>
<path d="M13.5 19.4015C13.2914 19.4015 13.0875 19.3396 12.914 19.2237C12.7406 19.1079 12.6054 18.9431 12.5256 18.7504C12.4458 18.5577 12.4249 18.3456 12.4656 18.141C12.5063 17.9365 12.6067 17.7485 12.7542 17.601C12.9017 17.4535 13.0897 17.3531 13.2942 17.3124C13.4988 17.2717 13.7109 17.2926 13.9036 17.3724C14.0963 17.4522 14.2611 17.5874 14.3769 17.7608C14.4928 17.9343 14.5547 18.1382 14.5547 18.3468C14.5547 18.6265 14.4436 18.8948 14.2458 19.0926C14.048 19.2904 13.7797 19.4015 13.5 19.4015Z" fill="#EE0000"/>
</svg>
