<svg width="135.32mm" height="120.16mm" version="1.1" viewBox="0 0 135.32 120.16" xmlns="http://www.w3.org/2000/svg">
 <g transform="translate(-637.43 -56.766)" stroke="#efff35">
  <g transform="translate(0 -154.07)" fill="none" stroke="#efff35">
   <path d="m721.81 294.94 13.734 13.628 13.734-13.628m-13.734 11.734v-27.636" stroke-linecap="round" stroke-linejoin="round" stroke-width="5.4938"/>
   <path d="m656.48 215.07c-8.2084 0-14.817 6.6082-14.817 14.817v55.033c0 8.2084 6.6082 14.817 14.817 14.817h46.642c-0.35062-1.9259-0.53485-3.9098-0.53485-5.9366 0-18.198 14.765-32.963 32.963-32.963 5.8794 0 11.399 1.543 16.18 4.2432v-35.194c0-8.2084-6.6082-14.817-14.817-14.817z" stroke-width="8.4667"/>
   <path d="m641.66 240.47h110.07m-88.9 28.575h12.7v5.2917h-12.7z" stroke-linejoin="round" stroke-width="15.875"/>
   <path d="m735.55 260.84c-18.198 0-32.963 14.765-32.963 32.963s14.765 32.963 32.963 32.963 32.963-14.765 32.963-32.963-14.765-32.963-32.963-32.963z" stroke-miterlimit="10" stroke-width="8.4667"/>
  </g>
 </g>
</svg>
